<?xml version="1.0" encoding="UTF-8"?>
<svg version="1.1" xmlns="http://www.w3.org/2000/svg" xmlns:xlink="http://www.w3.org/1999/xlink">
    <!-- Generator: Sketch 55.2 (78181) - https://sketchapp.com -->
    <title>gears/gear</title>
    <desc>Created with Sketch.</desc>
    <defs>
        <path d="M10.0001,14.9463 C7.2686,14.9463 5.0536,12.7318 5.0536,9.9998 C5.0536,7.2683 7.2686,5.0538 10.0001,5.0538 C12.7316,5.0538 14.9461,7.2683 14.9461,9.9998 C14.9461,12.7318 12.7316,14.9463 10.0001,14.9463 M19.4286,8.4718 L18.7161,8.4358 C16.9536,8.3478 16.0851,6.2513 17.2696,4.9428 L17.7481,4.4138 C17.9631,4.1763 17.9541,3.8113 17.7271,3.5848 L16.4151,2.2728 C16.1881,2.0458 15.8236,2.0373 15.5861,2.2518 L15.0571,2.7303 C13.7486,3.9148 11.6521,3.0463 11.5641,1.2838 L11.5286,0.5713 C11.5126,0.2513 11.2486,-0.0002 10.9281,-0.0002 L9.0721,-0.0002 C8.7516,-0.0002 8.4876,0.2513 8.4716,0.5713 L8.4361,1.2838 C8.3476,3.0463 6.2511,3.9148 4.9426,2.7303 L4.4141,2.2518 C4.1761,2.0373 3.8116,2.0463 3.5851,2.2728 L2.2726,3.5848 C2.0461,3.8113 2.0371,4.1763 2.2521,4.4138 L2.7306,4.9428 C3.9146,6.2513 3.0461,8.3478 1.2836,8.4358 L0.5716,8.4718 C0.2511,8.4873 0.0001,8.7513 0.0001,9.0723 L0.0001,10.9278 C0.0001,11.2483 0.2511,11.5128 0.5716,11.5283 L1.2836,11.5638 C3.0461,11.6523 3.9146,13.7483 2.7306,15.0573 L2.2521,15.5863 C2.0371,15.8238 2.0461,16.1883 2.2726,16.4153 L3.5851,17.7273 C3.8116,17.9538 4.1761,17.9628 4.4141,17.7483 L4.9426,17.2693 C6.2511,16.0853 8.3476,16.9538 8.4361,18.7163 L8.4716,19.4288 C8.4876,19.7483 8.7516,19.9998 9.0721,19.9998 L10.9281,19.9998 C11.2486,19.9998 11.5126,19.7483 11.5286,19.4288 L11.5641,18.7163 C11.6521,16.9538 13.7486,16.0853 15.0571,17.2693 L15.5861,17.7483 C15.8236,17.9628 16.1881,17.9538 16.4151,17.7273 L17.7271,16.4153 C17.9541,16.1883 17.9631,15.8238 17.7481,15.5858 L17.2696,15.0573 C16.0851,13.7483 16.9536,11.6523 18.7161,11.5638 L19.4286,11.5283 C19.7486,11.5128 20.0001,11.2483 20.0001,10.9278 L20.0001,9.0723 C20.0001,8.7513 19.7486,8.4873 19.4286,8.4718" id="path-1"></path>
        <path d="M0.884615971,4.00000954 C0.884615971,2.27953329 2.27952449,0.884624775 4.00000073,0.884624775 C5.72047698,0.884624775 7.1153855,2.27953329 7.1153855,4.00000954 C7.1153855,5.72048578 5.72047698,7.1153943 4.00000073,7.1153943 C2.27952449,7.1153943 0.884615971,5.72048578 0.884615971,4.00000954" id="path-3"></path>
    </defs>
    <g id="New-Incident-Template-Builder" stroke="none" stroke-width="1" fill="none" fill-rule="evenodd">
        <g id="1280x800" transform="translate(-414.000000, -423.000000)">
            <g id="gears/gear" transform="translate(414.000000, 423.000000)">
                <g id="100%">
                    <mask id="mask-2" fill="white">
                        <use xlink:href="#path-1"></use>
                    </mask>
                    <use id="Mask" fill="#FFFFFF" xlink:href="#path-1"></use>
                </g>
                <g id="50%" opacity="0.5" transform="translate(6.000000, 6.000000)">
                    <mask id="mask-4" fill="white">
                        <use xlink:href="#path-3"></use>
                    </mask>
                    <use id="Mask" fill="#FFFFFF" xlink:href="#path-3"></use>
                </g>
            </g>
        </g>
    </g>
</svg>