<?xml version="1.0" encoding="UTF-8" standalone="no"?>
<!-- Generator: Adobe Illustrator 17.1.0, SVG Export Plug-In . SVG Version: 6.00 Build 0)  -->

<svg
   xmlns:dc="http://purl.org/dc/elements/1.1/"
   xmlns:cc="http://creativecommons.org/ns#"
   xmlns:rdf="http://www.w3.org/1999/02/22-rdf-syntax-ns#"
   xmlns:svg="http://www.w3.org/2000/svg"
   xmlns="http://www.w3.org/2000/svg"
   xmlns:xlink="http://www.w3.org/1999/xlink"
   xmlns:sodipodi="http://sodipodi.sourceforge.net/DTD/sodipodi-0.dtd"
   xmlns:inkscape="http://www.inkscape.org/namespaces/inkscape"
   version="1.1"
   x="0px"
   y="0px"
   viewBox="0 0 30 30"
   enable-background="new 0 0 30 30"
   xml:space="preserve"
   id="svg4703"
   inkscape:version="0.91 r13725"
   sodipodi:docname="excluded-inverse-orange-30x30.svg"><metadata
     id="metadata4760"><rdf:RDF><cc:Work
         rdf:about=""><dc:format>image/svg+xml</dc:format><dc:type
           rdf:resource="http://purl.org/dc/dcmitype/StillImage" /><dc:title></dc:title></cc:Work></rdf:RDF></metadata><defs
     id="defs4758"><defs
       id="defs4736"><path
         id="SVGID_5_"
         d="m -100.958,239.891 c 0,-0.186 -0.157,-0.34 -0.351,-0.34 l -7.696,0 c -0.194,0 -0.351,0.154 -0.351,0.34 l 0,0.379 c 0,0.186 0.157,0.337 0.351,0.337 l 7.696,0 c 0.194,0 0.351,-0.151 0.351,-0.337 l 0,-0.379 z m 0,-2.466 c 0,-0.186 -0.15,-0.337 -0.336,-0.337 l -7.727,0 c -0.185,0 -0.336,0.151 -0.336,0.337 l 0,0.38 c 0,0.186 0.15,0.339 0.336,0.339 l 7.727,0 c 0.185,0 0.336,-0.153 0.336,-0.339 l 0,-0.38 z m 0,-2.46 c 0,-0.187 -0.157,-0.34 -0.351,-0.34 l -7.696,0 c -0.194,0 -0.351,0.153 -0.351,0.34 l 0,0.379 c 0,0.186 0.157,0.337 0.351,0.337 l 7.696,0 c 0.194,0 0.351,-0.15 0.351,-0.337 l 0,-0.379 z m 2.802,10.216 c 0,1.407 -1.4,1.407 -1.4,1.407 l -11.2,0 c 0,0 -1.4,0 -1.4,-1.407 0,-1.169 0,-16.185 0,-16.185 0,0 0,-1.407 1.4,-1.407 0.908,0 7.698,0 7.698,0 l 0,3.519 c 0,1.407 1.402,1.407 1.402,1.407 l 3.5,0 c 0,-10e-4 0,11.258 0,12.666 z m -3.5,-13.371 c -0.749,0 -0.7,-0.704 -0.7,-0.704 l 0,-3.519 4.2,4.222 -3.5,0 z"
         inkscape:connector-curvature="0" /></defs><clipPath
       id="SVGID_6_"><use
         xlink:href="#SVGID_5_"
         overflow="visible"
         id="use4742"
         style="overflow:visible"
         x="0"
         y="0"
         width="100%"
         height="100%" /></clipPath><defs
       id="defs4716"><path
         id="SVGID_1_"
         d="m -161.101,239.596 c 0,-0.167 -0.146,-0.304 -0.326,-0.304 l -7.146,0 c -0.18,0 -0.326,0.138 -0.326,0.304 l 0,0.339 c 0,0.167 0.146,0.302 0.326,0.302 l 7.146,0 c 0.18,0 0.326,-0.135 0.326,-0.302 l 0,-0.339 z m 0,-2.207 c 0,-0.166 -0.14,-0.301 -0.312,-0.301 l -7.175,0 c -0.172,0 -0.312,0.135 -0.312,0.301 l 0,0.34 c 0,0.167 0.14,0.303 0.312,0.303 l 7.175,0 c 0.172,0 0.312,-0.137 0.312,-0.303 l 0,-0.34 z m 0,-2.2 c 0,-0.167 -0.146,-0.304 -0.326,-0.304 l -7.146,0 c -0.18,0 -0.326,0.137 -0.326,0.304 l 0,0.339 c 0,0.167 0.146,0.301 0.326,0.301 l 7.146,0 c 0.18,0 0.326,-0.135 0.326,-0.301 l 0,-0.339 z m 2.601,9.14 c 0,1.259 -1.3,1.259 -1.3,1.259 l -10.4,0 c 0,0 -1.3,0 -1.3,-1.259 0,-1.046 0,-14.481 0,-14.481 0,0 0,-1.259 1.3,-1.259 0.844,0 7.148,0 7.148,0 l 0,3.148 c 0,1.259 1.302,1.259 1.302,1.259 l 3.25,0 c 0,-0.001 0,10.074 0,11.333 z m -3.25,-11.963 c -0.696,0 -0.65,-0.63 -0.65,-0.63 l 0,-3.148 3.9,3.778 -3.25,0 z"
         inkscape:connector-curvature="0" /></defs><clipPath
       id="SVGID_2_"><use
         xlink:href="#SVGID_1_"
         overflow="visible"
         id="use4722"
         style="overflow:visible"
         x="0"
         y="0"
         width="100%"
         height="100%" /></clipPath></defs><sodipodi:namedview
     pagecolor="#ffffff"
     bordercolor="#666666"
     borderopacity="1"
     objecttolerance="10"
     gridtolerance="10"
     guidetolerance="10"
     inkscape:pageopacity="0"
     inkscape:pageshadow="2"
     inkscape:window-width="1680"
     inkscape:window-height="987"
     id="namedview4756"
     showgrid="true"
     inkscape:zoom="15.733333"
     inkscape:cx="-4.2974512"
     inkscape:cy="20.460993"
     inkscape:window-x="-8"
     inkscape:window-y="-8"
     inkscape:window-maximized="1"
     inkscape:current-layer="svg4703"><inkscape:grid
       type="xygrid"
       id="grid5431" /></sodipodi:namedview><path
     style="fill:#fbaa2f"
     d="M 15 1 C 7.281 1 1 7.281 1 15 C 1 22.72 7.281 29 15 29 C 22.721 29 29 22.719 29 15 C 29 7.281 22.721 1 15 1 z M 14.998047 4.9902344 A 1 1 0 0 1 15.998047 5.9902344 L 15.998047 13.001953 L 16.001953 13.001953 L 16.001953 13.361328 L 22.324219 9.7109375 A 1 1 0 0 1 23.689453 10.078125 A 1 1 0 0 1 23.324219 11.443359 L 17.251953 14.949219 L 17.253906 14.953125 L 16.941406 15.132812 L 23.263672 18.783203 A 1 1 0 0 1 23.630859 20.150391 A 1 1 0 0 1 22.263672 20.515625 L 16.191406 17.009766 L 16.189453 17.011719 L 16.001953 16.902344 L 16.001953 24.001953 A 1 1 0 0 1 15.001953 25.001953 A 1 1 0 0 1 14.001953 24.001953 L 14.001953 16.990234 L 13.998047 16.990234 L 13.998047 16.832031 L 7.7265625 20.453125 A 1 1 0 0 1 6.3613281 20.087891 A 1 1 0 0 1 6.7265625 18.720703 L 12.798828 15.214844 L 12.796875 15.210938 L 12.933594 15.130859 L 6.6640625 11.511719 A 1 1 0 0 1 6.296875 10.146484 A 1 1 0 0 1 7.6640625 9.78125 L 13.736328 13.287109 L 13.738281 13.283203 L 13.998047 13.433594 L 13.998047 5.9902344 A 1 1 0 0 1 14.998047 4.9902344 z "
     id="path5429" /></svg>