<?xml version="1.0" encoding="UTF-8" standalone="no"?>
<!-- Generator: Adobe Illustrator 17.1.0, SVG Export Plug-In . SVG Version: 6.00 Build 0)  -->

<svg
   xmlns:i="&amp;ns_ai;"
   xmlns:dc="http://purl.org/dc/elements/1.1/"
   xmlns:cc="http://creativecommons.org/ns#"
   xmlns:rdf="http://www.w3.org/1999/02/22-rdf-syntax-ns#"
   xmlns:svg="http://www.w3.org/2000/svg"
   xmlns="http://www.w3.org/2000/svg"
   xmlns:xlink="http://www.w3.org/1999/xlink"
   xmlns:sodipodi="http://sodipodi.sourceforge.net/DTD/sodipodi-0.dtd"
   xmlns:inkscape="http://www.inkscape.org/namespaces/inkscape"
   version="1.1"
   x="0px"
   y="0px"
   viewBox="0 0 30 30"
   enable-background="new 0 0 30 30"
   xml:space="preserve"
   id="svg2"
   inkscape:version="0.48.4 r9939"
   width="100%"
   height="100%"
   sodipodi:docname="badge-collected-30x30.svg"><metadata
   id="metadata23"><rdf:RDF><cc:Work
       rdf:about=""><dc:format>image/svg+xml</dc:format><dc:type
         rdf:resource="http://purl.org/dc/dcmitype/StillImage" /><dc:title></dc:title></cc:Work></rdf:RDF></metadata><defs
   id="defs21">
	
		
		
	










		</defs><sodipodi:namedview
   pagecolor="#3dbc64"
   bordercolor="#666666"
   borderopacity="1"
   objecttolerance="10"
   gridtolerance="10"
   guidetolerance="10"
   inkscape:pageopacity="0"
   inkscape:pageshadow="2"
   inkscape:window-width="1545"
   inkscape:window-height="737"
   id="namedview19"
   showgrid="true"
   inkscape:zoom="11.125147"
   inkscape:cx="1.381975"
   inkscape:cy="12.468211"
   inkscape:window-x="0"
   inkscape:window-y="0"
   inkscape:window-maximized="0"
   inkscape:current-layer="svg2"><inkscape:grid
     type="xygrid"
     id="grid3000" /></sodipodi:namedview>
<rect
   style="opacity:0.25;fill:#ed1c24;display:none"
   id="rect12"
   height="56"
   width="56"
   display="inline"
   y="-13.054182"
   x="-13.020283" /><g
   id="g15"
   transform="matrix(1.8666667,0,0,1.8666667,-13.020283,-13.054182)">
				<path
   style="fill:#3dbc64"
   d="M 14.96875 0.9375 C 7.2500832 0.9375 0.96875 7.2188332 0.96875 14.9375 C 0.96875 22.658033 7.2500832 28.9375 14.96875 28.9375 C 22.689283 28.9375 28.96875 22.656167 28.96875 14.9375 C 28.96875 7.2188332 22.689283 0.9375 14.96875 0.9375 z M 19.84375 9.875 C 20.683588 9.9091037 21.24283 11.31386 20.34375 12 C 17.18311 14.41024 14.69241 17.31171 12.65625 20.71875 C 12.32025 21.28099 11.3967 21.52651 10.9375 20.96875 C 9.99894 19.83307 9.18856 18.60443 8.25 17.46875 C 7.35624 16.38683 8.91202 14.81537 9.8125 15.90625 C 10.44866 16.67681 11.02244 17.48381 11.625 18.28125 C 13.70148 15.12285 16.20136 12.41663 19.25 10.09375 C 19.46042 9.93247 19.649941 9.8671299 19.84375 9.875 z "
   transform="matrix(0.53571428,0,0,0.53571428,6.9751515,6.9933117)"
   id="path3004" />
			</g>
</svg>
