<?xml version="1.0" encoding="UTF-8"?>
<svg width="20px" height="20px" viewBox="0 0 20 20" version="1.1" xmlns="http://www.w3.org/2000/svg" xmlns:xlink="http://www.w3.org/1999/xlink">
    <!-- Generator: Sketch 58 (84663) - https://sketch.com -->
    <title>Artboard</title>
    <desc>Created with Sketch.</desc>
    <g id="Artboard" stroke="none" stroke-width="1" fill="none" fill-rule="evenodd">
        <path d="M6.464,13.536 C6.074,13.144 6.074,12.511 6.464,12.121 L6.464,12.121 L8.598,9.988 L6.502,7.817 C6.118,7.42 6.13,6.787 6.527,6.403 L6.527,6.403 C6.923,6.02 7.557,6.031 7.941,6.428 L7.941,6.428 L10.012,8.573 L12.121,6.464 C12.512,6.074 13.144,6.074 13.535,6.464 L13.535,6.464 C13.925,6.855 13.925,7.488 13.535,7.879 L13.535,7.879 L11.403,10.012 L13.498,12.183 C13.882,12.58 13.87,13.212 13.474,13.597 L13.474,13.597 C13.076,13.98 12.443,13.969 12.06,13.572 L12.06,13.572 L9.988,11.427 L7.879,13.536 C7.684,13.731 7.427,13.829 7.172,13.829 L7.172,13.829 C6.915,13.829 6.66,13.731 6.464,13.536 L6.464,13.536 Z" id="Mask" fill="#FFFFFF"></path>
        <path d="M0,10 C0,4.477 4.477,0 10,0 C15.523,0 20,4.477 20,10 C20,15.522 15.523,20 10,20 C4.477,20 0,15.522 0,10 Z M1,10 C1,14.97 5.03,19 10,19 C14.971,19 19,14.97 19,10 C19,5.029 14.971,1 10,1 C5.03,1 1,5.029 1,10 Z" id="Mask" fill="#FFFFFF" opacity="0.5"></path>
    </g>
</svg>