<?xml version="1.0" encoding="utf-8"?>
<!-- Generator: Adobe Illustrator 16.0.0, SVG Export Plug-In . SVG Version: 6.00 Build 0)  -->
<!DOCTYPE svg PUBLIC "-//W3C//DTD SVG 1.1//EN" "http://www.w3.org/Graphics/SVG/1.1/DTD/svg11.dtd">
<svg version="1.1"
	 id="svg2" inkscape:version="0.48.4 r9939" xmlns:dc="http://purl.org/dc/elements/1.1/" xmlns:cc="http://creativecommons.org/ns#" xmlns:rdf="http://www.w3.org/1999/02/22-rdf-syntax-ns#" xmlns:svg="http://www.w3.org/2000/svg" xmlns:sodipodi="http://sodipodi.sourceforge.net/DTD/sodipodi-0.dtd" xmlns:inkscape="http://www.inkscape.org/namespaces/inkscape" sodipodi:docname="exempt-30x30.svg"
	 xmlns="http://www.w3.org/2000/svg" xmlns:xlink="http://www.w3.org/1999/xlink" x="0px" y="0px" width="30px" height="30px"
	 viewBox="0 0 30 30" enable-background="new 0 0 30 30" xml:space="preserve">
<sodipodi:namedview  id="base" inkscape:cy="13.515384" inkscape:cx="20.693391" inkscape:zoom="15.839192" borderopacity="1.0" bordercolor="#666666" pagecolor="#ffffff" showgrid="false" inkscape:window-maximized="1" inkscape:window-y="-8" inkscape:window-x="-8" inkscape:window-height="987" inkscape:window-width="1680" inkscape:current-layer="layer1" inkscape:document-units="px" inkscape:pageshadow="2" inkscape:pageopacity="0.0">
	</sodipodi:namedview>
<g id="layer1" transform="translate(0,-1022.3622)" inkscape:label="Layer 1" inkscape:groupmode="layer">
	<path id="path23" fill="#8B41B2" d="M15,1023.362c-7.719,0-14,6.281-14,14c0,7.721,6.281,14,14,14c7.721,0,14-6.281,14-14
		S22.721,1023.362,15,1023.362z M21.25,1031.487c0.228-0.03,0.473,0.098,0.594,0.313l1.313,2.344
		c0.162,0.286,0.064,0.646-0.219,0.813l-13.875,8.188c-0.283,0.167-0.651,0.067-0.813-0.219l-1.344-2.344
		c-0.162-0.286-0.064-0.646,0.219-0.813l13.906-8.188C21.102,1031.539,21.174,1031.497,21.25,1031.487z"/>
</g>
</svg>
