<?xml version="1.0" encoding="UTF-8"?>
<svg width="20px" height="20px" viewBox="0 0 20 20" version="1.1" xmlns="http://www.w3.org/2000/svg" xmlns:xlink="http://www.w3.org/1999/xlink">
    <!-- Generator: Sketch 58 (84663) - https://sketch.com -->
    <title>Artboard</title>
    <desc>Created with Sketch.</desc>
    <defs>
        <path d="M8,16 C3.581722,16 5.68434189e-14,12.418278 5.68434189e-14,8 C5.68434189e-14,3.581722 3.581722,0 8,0 C12.418278,0 16,3.581722 16,8 C16,12.418278 12.418278,16 8,16 Z M4,5.41308404 C4,5.65614999 4.10171629,5.88203941 4.30515192,6.09075908 C4.50858754,6.29947875 4.7582548,6.40383702 5.05416116,6.40383702 C5.55614518,6.40383702 5.89696079,6.1052931 6.07661823,5.50819633 C6.26684375,4.93751976 6.49933812,4.50555579 6.77410832,4.21229144 C7.04887852,3.91902709 7.47687952,3.77239712 8.05812417,3.77239712 C8.55482415,3.77239712 8.96036831,3.9177061 9.27476882,4.20832843 C9.58916934,4.49895075 9.74636724,4.85561826 9.74636724,5.27834164 C9.74636724,5.49498737 9.6948486,5.69577797 9.59180978,5.88071945 C9.48877095,6.06566093 9.36195584,6.23342675 9.21136063,6.38402196 C9.06076543,6.53461716 8.81638214,6.7578646 8.47820343,7.05377096 C8.09246835,7.39194967 7.78599849,7.68388863 7.55878468,7.92959659 C7.33157086,8.17530456 7.14927413,8.46063856 7.01188904,8.78560716 C6.87450394,9.11057576 6.80581242,9.49498407 6.80581242,9.93884362 C6.80581242,10.2928745 6.89960276,10.5597146 7.08718626,10.739372 C7.27476976,10.9190295 7.50594314,11.0088568 7.78071334,11.0088568 C8.30911757,11.0088568 8.62351337,10.7340908 8.72391017,10.1845504 C8.78203464,9.92563229 8.82562733,9.74465655 8.85468956,9.64161773 C8.8837518,9.5385789 8.92470251,9.43554163 8.97754293,9.3325028 C9.03038336,9.22946398 9.11096379,9.11585877 9.21928666,8.99168378 C9.32760952,8.86750879 9.47159752,8.72352079 9.65125495,8.55971548 C10.3011922,7.97847083 10.75165,7.56500073 11.002642,7.31929276 C11.253634,7.0735848 11.4702765,6.78164584 11.652576,6.44346713 C11.8348754,6.10528843 11.9260238,5.71163318 11.9260238,5.26248959 C11.9260238,4.69181303 11.7661839,4.16341672 11.4464993,3.67728484 C11.1268148,3.19115295 10.673715,2.80674464 10.0871863,2.52404838 C9.50065757,2.24135211 8.8243103,2.1000061 8.05812417,2.1000061 C7.23381358,2.1000061 6.51255263,2.26909292 5.89431968,2.60727163 C5.27608674,2.94545033 4.80581403,3.37213034 4.48348745,3.88732447 C4.16116087,4.40251859 4,4.91110003 4,5.41308404 Z M7.8678996,14.1000061 C8.1796581,14.1000061 8.45442417,13.9943268 8.69220608,13.7829652 C8.92998798,13.5716035 9.04887715,13.2809855 9.04887715,12.9111025 C9.04887715,12.5782079 8.93527194,12.2981578 8.70805812,12.070944 C8.48084431,11.8437302 8.20079427,11.730125 7.8678996,11.730125 C7.5297209,11.730125 7.2443869,11.8437302 7.01188904,12.070944 C6.77939118,12.2981578 6.66314399,12.5782079 6.66314399,12.9111025 C6.66314399,13.2862695 6.78335415,13.5782085 7.02377807,13.7869282 C7.26420199,13.9956478 7.54557303,14.1000061 7.8678996,14.1000061 Z" id="path-1"></path>
        <path d="M10,20 C4.4771525,20 0,15.5228475 0,10 C0,4.4771525 4.4771525,0 10,0 C15.5228475,0 20,4.4771525 20,10 C20,15.5228475 15.5228475,20 10,20 Z M10,19 C14.9705627,19 19,14.9705627 19,10 C19,5.02943725 14.9705627,1 10,1 C5.02943725,1 1,5.02943725 1,10 C1,14.9705627 5.02943725,19 10,19 Z" id="path-3"></path>
    </defs>
    <g id="Artboard" stroke="none" stroke-width="1" fill="none" fill-rule="evenodd">
        <g id="symbols/help">
            <g id="100%" transform="translate(2.000000, 2.000000)">
                <mask class="fill" fill="white">
                    <use xlink:href="#path-1"></use>
                </mask>
                <use class="fill" fill="#FFFFFF" fill-rule="nonzero" xlink:href="#path-1"></use>
            </g>
            <g id="50%" opacity="0.5">
                <mask class="fill" fill="white">
                    <use xlink:href="#path-3"></use>
                </mask>
                <use class="fill" fill="#FFFFFF" xlink:href="#path-3"></use>
            </g>
        </g>
    </g>
</svg>